<mxfile host="app.diagrams.net" modified="2021-02-10T17:11:33.501Z" agent="5.0 (Windows NT 10.0; Win64; x64) AppleWebKit/537.36 (KHTML, like Gecko) Chrome/88.0.4324.150 Safari/537.36" etag="0UWdiqGfOuBpcu3ormLy" version="14.3.0" type="github">
  <diagram id="qcXoTjfuD326Q-cp0WSE" name="Page-1">
    <mxGraphModel dx="1146" dy="423" grid="1" gridSize="10" guides="1" tooltips="1" connect="1" arrows="1" fold="1" page="1" pageScale="1" pageWidth="850" pageHeight="1100" math="0" shadow="0">
      <root>
        <mxCell id="0" />
        <mxCell id="1" parent="0" />
        <mxCell id="vu7AOW-ozLHc7XYZLCrP-42" style="edgeStyle=orthogonalEdgeStyle;rounded=0;orthogonalLoop=1;jettySize=auto;html=1;entryX=0.5;entryY=0;entryDx=0;entryDy=0;endArrow=none;endFill=0;" edge="1" parent="1">
          <mxGeometry relative="1" as="geometry">
            <mxPoint x="70" y="130" as="sourcePoint" />
            <mxPoint x="70" y="250" as="targetPoint" />
          </mxGeometry>
        </mxCell>
        <mxCell id="vu7AOW-ozLHc7XYZLCrP-46" style="edgeStyle=orthogonalEdgeStyle;rounded=0;orthogonalLoop=1;jettySize=auto;html=1;entryX=0;entryY=0.5;entryDx=0;entryDy=0;endArrow=none;endFill=0;" edge="1" parent="1" source="vu7AOW-ozLHc7XYZLCrP-2" target="vu7AOW-ozLHc7XYZLCrP-23">
          <mxGeometry relative="1" as="geometry" />
        </mxCell>
        <mxCell id="vu7AOW-ozLHc7XYZLCrP-64" style="edgeStyle=orthogonalEdgeStyle;rounded=0;orthogonalLoop=1;jettySize=auto;html=1;endArrow=none;endFill=0;entryX=0;entryY=0.846;entryDx=0;entryDy=0;entryPerimeter=0;" edge="1" parent="1" source="vu7AOW-ozLHc7XYZLCrP-2" target="vu7AOW-ozLHc7XYZLCrP-7">
          <mxGeometry relative="1" as="geometry">
            <mxPoint x="500" y="106" as="targetPoint" />
            <Array as="points">
              <mxPoint x="120" y="60" />
              <mxPoint x="500" y="60" />
              <mxPoint x="500" y="106" />
            </Array>
          </mxGeometry>
        </mxCell>
        <mxCell id="vu7AOW-ozLHc7XYZLCrP-115" style="edgeStyle=orthogonalEdgeStyle;rounded=0;orthogonalLoop=1;jettySize=auto;html=1;exitX=1;exitY=0.75;exitDx=0;exitDy=0;endArrow=none;endFill=0;" edge="1" parent="1" source="vu7AOW-ozLHc7XYZLCrP-2">
          <mxGeometry relative="1" as="geometry">
            <mxPoint x="230" y="230" as="targetPoint" />
          </mxGeometry>
        </mxCell>
        <mxCell id="vu7AOW-ozLHc7XYZLCrP-2" value="Customer" style="swimlane;fontStyle=0;childLayout=stackLayout;horizontal=1;startSize=26;fillColor=none;horizontalStack=0;resizeParent=1;resizeParentMax=0;resizeLast=0;collapsible=1;marginBottom=0;" vertex="1" parent="1">
          <mxGeometry x="50" y="80" width="140" height="52" as="geometry">
            <mxRectangle x="100" y="60" width="90" height="26" as="alternateBounds" />
          </mxGeometry>
        </mxCell>
        <mxCell id="vu7AOW-ozLHc7XYZLCrP-6" value="Cuisine" style="swimlane;fontStyle=0;childLayout=stackLayout;horizontal=1;startSize=26;fillColor=none;horizontalStack=0;resizeParent=1;resizeParentMax=0;resizeLast=0;collapsible=1;marginBottom=0;" vertex="1" parent="1">
          <mxGeometry x="540" y="58" width="140" height="78" as="geometry">
            <mxRectangle x="100" y="60" width="90" height="26" as="alternateBounds" />
          </mxGeometry>
        </mxCell>
        <mxCell id="vu7AOW-ozLHc7XYZLCrP-7" value="+ Name" style="text;strokeColor=none;fillColor=none;align=left;verticalAlign=top;spacingLeft=4;spacingRight=4;overflow=hidden;rotatable=0;points=[[0,0.5],[1,0.5]];portConstraint=eastwest;" vertex="1" parent="vu7AOW-ozLHc7XYZLCrP-6">
          <mxGeometry y="26" width="140" height="26" as="geometry" />
        </mxCell>
        <mxCell id="vu7AOW-ozLHc7XYZLCrP-8" value="+ Description" style="text;strokeColor=none;fillColor=none;align=left;verticalAlign=top;spacingLeft=4;spacingRight=4;overflow=hidden;rotatable=0;points=[[0,0.5],[1,0.5]];portConstraint=eastwest;" vertex="1" parent="vu7AOW-ozLHc7XYZLCrP-6">
          <mxGeometry y="52" width="140" height="26" as="geometry" />
        </mxCell>
        <mxCell id="vu7AOW-ozLHc7XYZLCrP-15" value="Credit Card" style="swimlane;fontStyle=0;childLayout=stackLayout;horizontal=1;startSize=26;fillColor=none;horizontalStack=0;resizeParent=1;resizeParentMax=0;resizeLast=0;collapsible=1;marginBottom=0;" vertex="1" parent="1">
          <mxGeometry x="50" y="252" width="140" height="104" as="geometry">
            <mxRectangle x="100" y="60" width="90" height="26" as="alternateBounds" />
          </mxGeometry>
        </mxCell>
        <mxCell id="vu7AOW-ozLHc7XYZLCrP-16" value="+ Number" style="text;strokeColor=none;fillColor=none;align=left;verticalAlign=top;spacingLeft=4;spacingRight=4;overflow=hidden;rotatable=0;points=[[0,0.5],[1,0.5]];portConstraint=eastwest;" vertex="1" parent="vu7AOW-ozLHc7XYZLCrP-15">
          <mxGeometry y="26" width="140" height="26" as="geometry" />
        </mxCell>
        <mxCell id="vu7AOW-ozLHc7XYZLCrP-17" value="+ Expiration date" style="text;strokeColor=none;fillColor=none;align=left;verticalAlign=top;spacingLeft=4;spacingRight=4;overflow=hidden;rotatable=0;points=[[0,0.5],[1,0.5]];portConstraint=eastwest;" vertex="1" parent="vu7AOW-ozLHc7XYZLCrP-15">
          <mxGeometry y="52" width="140" height="26" as="geometry" />
        </mxCell>
        <mxCell id="vu7AOW-ozLHc7XYZLCrP-18" value="+ Zip code" style="text;strokeColor=none;fillColor=none;align=left;verticalAlign=top;spacingLeft=4;spacingRight=4;overflow=hidden;rotatable=0;points=[[0,0.5],[1,0.5]];portConstraint=eastwest;" vertex="1" parent="vu7AOW-ozLHc7XYZLCrP-15">
          <mxGeometry y="78" width="140" height="26" as="geometry" />
        </mxCell>
        <mxCell id="vu7AOW-ozLHc7XYZLCrP-84" style="edgeStyle=orthogonalEdgeStyle;rounded=0;orthogonalLoop=1;jettySize=auto;html=1;exitX=0.75;exitY=0;exitDx=0;exitDy=0;endArrow=none;endFill=0;entryX=-0.106;entryY=0.039;entryDx=0;entryDy=0;entryPerimeter=0;" edge="1" parent="1" source="vu7AOW-ozLHc7XYZLCrP-19" target="vu7AOW-ozLHc7XYZLCrP-86">
          <mxGeometry relative="1" as="geometry">
            <mxPoint x="760" y="290" as="targetPoint" />
            <Array as="points">
              <mxPoint x="740" y="323" />
              <mxPoint x="760" y="323" />
              <mxPoint x="760" y="285" />
            </Array>
          </mxGeometry>
        </mxCell>
        <mxCell id="vu7AOW-ozLHc7XYZLCrP-19" value="Order Line Item" style="swimlane;fontStyle=0;childLayout=stackLayout;horizontal=1;startSize=26;fillColor=none;horizontalStack=0;resizeParent=1;resizeParentMax=0;resizeLast=0;collapsible=1;marginBottom=0;" vertex="1" parent="1">
          <mxGeometry x="635" y="356" width="140" height="52" as="geometry">
            <mxRectangle x="100" y="60" width="90" height="26" as="alternateBounds" />
          </mxGeometry>
        </mxCell>
        <mxCell id="vu7AOW-ozLHc7XYZLCrP-69" style="edgeStyle=orthogonalEdgeStyle;rounded=0;orthogonalLoop=1;jettySize=auto;html=1;entryX=0.5;entryY=0;entryDx=0;entryDy=0;endArrow=none;endFill=0;" edge="1" parent="1" source="vu7AOW-ozLHc7XYZLCrP-23" target="vu7AOW-ozLHc7XYZLCrP-31">
          <mxGeometry relative="1" as="geometry" />
        </mxCell>
        <mxCell id="vu7AOW-ozLHc7XYZLCrP-23" value="Order" style="swimlane;fontStyle=0;childLayout=stackLayout;horizontal=1;startSize=26;fillColor=none;horizontalStack=0;resizeParent=1;resizeParentMax=0;resizeLast=0;collapsible=1;marginBottom=0;" vertex="1" parent="1">
          <mxGeometry x="300" y="80" width="140" height="52" as="geometry">
            <mxRectangle x="100" y="60" width="90" height="26" as="alternateBounds" />
          </mxGeometry>
        </mxCell>
        <mxCell id="vu7AOW-ozLHc7XYZLCrP-74" value="+ Date" style="text;strokeColor=none;fillColor=none;align=left;verticalAlign=top;spacingLeft=4;spacingRight=4;overflow=hidden;rotatable=0;points=[[0,0.5],[1,0.5]];portConstraint=eastwest;" vertex="1" parent="vu7AOW-ozLHc7XYZLCrP-23">
          <mxGeometry y="26" width="140" height="26" as="geometry" />
        </mxCell>
        <mxCell id="vu7AOW-ozLHc7XYZLCrP-88" style="edgeStyle=orthogonalEdgeStyle;rounded=0;orthogonalLoop=1;jettySize=auto;html=1;exitX=1;exitY=0.5;exitDx=0;exitDy=0;entryX=0;entryY=0.5;entryDx=0;entryDy=0;endArrow=none;endFill=0;" edge="1" parent="1" source="vu7AOW-ozLHc7XYZLCrP-27" target="vu7AOW-ozLHc7XYZLCrP-19">
          <mxGeometry relative="1" as="geometry" />
        </mxCell>
        <mxCell id="vu7AOW-ozLHc7XYZLCrP-27" value="Running total" style="swimlane;fontStyle=0;childLayout=stackLayout;horizontal=1;startSize=26;fillColor=none;horizontalStack=0;resizeParent=1;resizeParentMax=0;resizeLast=0;collapsible=1;marginBottom=0;" vertex="1" parent="1">
          <mxGeometry x="410" y="356" width="140" height="52" as="geometry">
            <mxRectangle x="100" y="60" width="90" height="26" as="alternateBounds" />
          </mxGeometry>
        </mxCell>
        <mxCell id="vu7AOW-ozLHc7XYZLCrP-51" style="edgeStyle=orthogonalEdgeStyle;rounded=0;orthogonalLoop=1;jettySize=auto;html=1;endArrow=none;endFill=0;" edge="1" parent="1" source="vu7AOW-ozLHc7XYZLCrP-31" target="vu7AOW-ozLHc7XYZLCrP-8">
          <mxGeometry relative="1" as="geometry">
            <mxPoint x="610" y="140" as="targetPoint" />
            <Array as="points">
              <mxPoint x="590" y="220" />
            </Array>
          </mxGeometry>
        </mxCell>
        <mxCell id="vu7AOW-ozLHc7XYZLCrP-76" style="edgeStyle=orthogonalEdgeStyle;rounded=0;orthogonalLoop=1;jettySize=auto;html=1;exitX=0.75;exitY=1;exitDx=0;exitDy=0;entryX=0.283;entryY=0.939;entryDx=0;entryDy=0;entryPerimeter=0;endArrow=none;endFill=0;" edge="1" parent="1" source="vu7AOW-ozLHc7XYZLCrP-31" target="vu7AOW-ozLHc7XYZLCrP-87">
          <mxGeometry relative="1" as="geometry">
            <Array as="points">
              <mxPoint x="470" y="252" />
              <mxPoint x="470" y="291" />
              <mxPoint x="656" y="291" />
            </Array>
          </mxGeometry>
        </mxCell>
        <mxCell id="vu7AOW-ozLHc7XYZLCrP-79" style="edgeStyle=orthogonalEdgeStyle;rounded=0;orthogonalLoop=1;jettySize=auto;html=1;exitX=0.75;exitY=1;exitDx=0;exitDy=0;entryX=0.179;entryY=0;entryDx=0;entryDy=0;entryPerimeter=0;endArrow=none;endFill=0;" edge="1" parent="1" source="vu7AOW-ozLHc7XYZLCrP-31" target="vu7AOW-ozLHc7XYZLCrP-27">
          <mxGeometry relative="1" as="geometry">
            <Array as="points">
              <mxPoint x="440" y="252" />
              <mxPoint x="440" y="330" />
            </Array>
          </mxGeometry>
        </mxCell>
        <mxCell id="vu7AOW-ozLHc7XYZLCrP-102" style="edgeStyle=orthogonalEdgeStyle;rounded=0;orthogonalLoop=1;jettySize=auto;html=1;exitX=0.25;exitY=1;exitDx=0;exitDy=0;entryX=0.714;entryY=0;entryDx=0;entryDy=0;entryPerimeter=0;endArrow=none;endFill=0;" edge="1" parent="1" source="vu7AOW-ozLHc7XYZLCrP-31" target="vu7AOW-ozLHc7XYZLCrP-41">
          <mxGeometry relative="1" as="geometry">
            <Array as="points">
              <mxPoint x="400" y="252" />
              <mxPoint x="400" y="286" />
              <mxPoint x="340" y="286" />
            </Array>
          </mxGeometry>
        </mxCell>
        <mxCell id="vu7AOW-ozLHc7XYZLCrP-109" style="edgeStyle=orthogonalEdgeStyle;rounded=0;orthogonalLoop=1;jettySize=auto;html=1;exitX=1;exitY=0.75;exitDx=0;exitDy=0;endArrow=none;endFill=0;" edge="1" parent="1" source="vu7AOW-ozLHc7XYZLCrP-31">
          <mxGeometry relative="1" as="geometry">
            <mxPoint x="667" y="245" as="targetPoint" />
            <Array as="points">
              <mxPoint x="480" y="245" />
              <mxPoint x="667" y="245" />
            </Array>
          </mxGeometry>
        </mxCell>
        <mxCell id="vu7AOW-ozLHc7XYZLCrP-116" style="edgeStyle=orthogonalEdgeStyle;rounded=0;orthogonalLoop=1;jettySize=auto;html=1;exitX=0;exitY=0.5;exitDx=0;exitDy=0;endArrow=none;endFill=0;" edge="1" parent="1" source="vu7AOW-ozLHc7XYZLCrP-31">
          <mxGeometry relative="1" as="geometry">
            <mxPoint x="230" y="230" as="targetPoint" />
          </mxGeometry>
        </mxCell>
        <mxCell id="vu7AOW-ozLHc7XYZLCrP-31" value="System" style="swimlane;fontStyle=0;childLayout=stackLayout;horizontal=1;startSize=26;fillColor=none;horizontalStack=0;resizeParent=1;resizeParentMax=0;resizeLast=0;collapsible=1;marginBottom=0;" vertex="1" parent="1">
          <mxGeometry x="340" y="200" width="140" height="52" as="geometry">
            <mxRectangle x="100" y="60" width="90" height="26" as="alternateBounds" />
          </mxGeometry>
        </mxCell>
        <mxCell id="vu7AOW-ozLHc7XYZLCrP-37" value="Items" style="swimlane;fontStyle=0;childLayout=stackLayout;horizontal=1;startSize=26;fillColor=none;horizontalStack=0;resizeParent=1;resizeParentMax=0;resizeLast=0;collapsible=1;marginBottom=0;" vertex="1" parent="1">
          <mxGeometry x="670" y="180" width="140" height="104" as="geometry">
            <mxRectangle x="100" y="60" width="90" height="26" as="alternateBounds" />
          </mxGeometry>
        </mxCell>
        <mxCell id="vu7AOW-ozLHc7XYZLCrP-38" value="+ Identifier" style="text;strokeColor=none;fillColor=none;align=left;verticalAlign=top;spacingLeft=4;spacingRight=4;overflow=hidden;rotatable=0;points=[[0,0.5],[1,0.5]];portConstraint=eastwest;" vertex="1" parent="vu7AOW-ozLHc7XYZLCrP-37">
          <mxGeometry y="26" width="140" height="26" as="geometry" />
        </mxCell>
        <mxCell id="vu7AOW-ozLHc7XYZLCrP-39" value="+ Name" style="text;strokeColor=none;fillColor=none;align=left;verticalAlign=top;spacingLeft=4;spacingRight=4;overflow=hidden;rotatable=0;points=[[0,0.5],[1,0.5]];portConstraint=eastwest;" vertex="1" parent="vu7AOW-ozLHc7XYZLCrP-37">
          <mxGeometry y="52" width="140" height="26" as="geometry" />
        </mxCell>
        <mxCell id="vu7AOW-ozLHc7XYZLCrP-40" value="+ Price" style="text;strokeColor=none;fillColor=none;align=left;verticalAlign=top;spacingLeft=4;spacingRight=4;overflow=hidden;rotatable=0;points=[[0,0.5],[1,0.5]];portConstraint=eastwest;" vertex="1" parent="vu7AOW-ozLHc7XYZLCrP-37">
          <mxGeometry y="78" width="140" height="26" as="geometry" />
        </mxCell>
        <mxCell id="vu7AOW-ozLHc7XYZLCrP-41" value="Total" style="swimlane;fontStyle=0;childLayout=stackLayout;horizontal=1;startSize=26;fillColor=none;horizontalStack=0;resizeParent=1;resizeParentMax=0;resizeLast=0;collapsible=1;marginBottom=0;" vertex="1" parent="1">
          <mxGeometry x="240" y="320" width="140" height="52" as="geometry">
            <mxRectangle x="100" y="60" width="90" height="26" as="alternateBounds" />
          </mxGeometry>
        </mxCell>
        <mxCell id="vu7AOW-ozLHc7XYZLCrP-43" value="1...*" style="text;html=1;align=center;verticalAlign=middle;resizable=0;points=[];autosize=1;" vertex="1" parent="1">
          <mxGeometry x="64" y="231" width="40" height="20" as="geometry" />
        </mxCell>
        <mxCell id="vu7AOW-ozLHc7XYZLCrP-44" value="1" style="text;html=1;align=center;verticalAlign=middle;resizable=0;points=[];autosize=1;" vertex="1" parent="1">
          <mxGeometry x="70" y="130" width="20" height="20" as="geometry" />
        </mxCell>
        <mxCell id="vu7AOW-ozLHc7XYZLCrP-45" value="owns" style="text;html=1;align=center;verticalAlign=middle;resizable=0;points=[];autosize=1;rotation=90;" vertex="1" parent="1">
          <mxGeometry x="60" y="178" width="40" height="20" as="geometry" />
        </mxCell>
        <mxCell id="vu7AOW-ozLHc7XYZLCrP-47" value="starts" style="text;html=1;align=center;verticalAlign=middle;resizable=0;points=[];autosize=1;rotation=0;" vertex="1" parent="1">
          <mxGeometry x="230" y="87" width="40" height="20" as="geometry" />
        </mxCell>
        <mxCell id="vu7AOW-ozLHc7XYZLCrP-48" value="1" style="text;html=1;align=center;verticalAlign=middle;resizable=0;points=[];autosize=1;" vertex="1" parent="1">
          <mxGeometry x="190" y="87" width="20" height="20" as="geometry" />
        </mxCell>
        <mxCell id="vu7AOW-ozLHc7XYZLCrP-49" value="1" style="text;html=1;align=center;verticalAlign=middle;resizable=0;points=[];autosize=1;" vertex="1" parent="1">
          <mxGeometry x="280" y="87" width="20" height="20" as="geometry" />
        </mxCell>
        <mxCell id="vu7AOW-ozLHc7XYZLCrP-52" value="1" style="text;html=1;align=center;verticalAlign=middle;resizable=0;points=[];autosize=1;" vertex="1" parent="1">
          <mxGeometry x="480" y="200" width="20" height="20" as="geometry" />
        </mxCell>
        <mxCell id="vu7AOW-ozLHc7XYZLCrP-53" value="shows" style="text;html=1;align=center;verticalAlign=middle;resizable=0;points=[];autosize=1;rotation=0;" vertex="1" parent="1">
          <mxGeometry x="545" y="200" width="50" height="20" as="geometry" />
        </mxCell>
        <mxCell id="vu7AOW-ozLHc7XYZLCrP-54" value="0...*" style="text;html=1;align=center;verticalAlign=middle;resizable=0;points=[];autosize=1;" vertex="1" parent="1">
          <mxGeometry x="550" y="136" width="40" height="20" as="geometry" />
        </mxCell>
        <mxCell id="vu7AOW-ozLHc7XYZLCrP-55" style="edgeStyle=orthogonalEdgeStyle;rounded=0;orthogonalLoop=1;jettySize=auto;html=1;entryX=0.5;entryY=0;entryDx=0;entryDy=0;endArrow=none;endFill=0;" edge="1" parent="1" source="vu7AOW-ozLHc7XYZLCrP-7" target="vu7AOW-ozLHc7XYZLCrP-37">
          <mxGeometry relative="1" as="geometry" />
        </mxCell>
        <mxCell id="vu7AOW-ozLHc7XYZLCrP-56" value="has" style="text;html=1;align=center;verticalAlign=middle;resizable=0;points=[];autosize=1;rotation=90;" vertex="1" parent="1">
          <mxGeometry x="735" y="120" width="30" height="20" as="geometry" />
        </mxCell>
        <mxCell id="vu7AOW-ozLHc7XYZLCrP-57" value="1" style="text;html=1;align=center;verticalAlign=middle;resizable=0;points=[];autosize=1;" vertex="1" parent="1">
          <mxGeometry x="680" y="80" width="20" height="20" as="geometry" />
        </mxCell>
        <mxCell id="vu7AOW-ozLHc7XYZLCrP-58" value="1...*" style="text;html=1;align=center;verticalAlign=middle;resizable=0;points=[];autosize=1;" vertex="1" parent="1">
          <mxGeometry x="735" y="160" width="40" height="20" as="geometry" />
        </mxCell>
        <mxCell id="vu7AOW-ozLHc7XYZLCrP-59" style="edgeStyle=orthogonalEdgeStyle;rounded=0;orthogonalLoop=1;jettySize=auto;html=1;endArrow=none;endFill=0;" edge="1" parent="1" source="vu7AOW-ozLHc7XYZLCrP-38">
          <mxGeometry relative="1" as="geometry">
            <mxPoint x="620" y="135" as="targetPoint" />
            <Array as="points">
              <mxPoint x="620" y="219" />
              <mxPoint x="620" y="135" />
            </Array>
          </mxGeometry>
        </mxCell>
        <mxCell id="vu7AOW-ozLHc7XYZLCrP-60" value="1...*" style="text;html=1;align=center;verticalAlign=middle;resizable=0;points=[];autosize=1;" vertex="1" parent="1">
          <mxGeometry x="620" y="136" width="40" height="20" as="geometry" />
        </mxCell>
        <mxCell id="vu7AOW-ozLHc7XYZLCrP-61" value="1" style="text;html=1;align=center;verticalAlign=middle;resizable=0;points=[];autosize=1;" vertex="1" parent="1">
          <mxGeometry x="650" y="200" width="20" height="20" as="geometry" />
        </mxCell>
        <mxCell id="vu7AOW-ozLHc7XYZLCrP-62" value="contains" style="text;html=1;align=center;verticalAlign=middle;resizable=0;points=[];autosize=1;rotation=90;" vertex="1" parent="1">
          <mxGeometry x="600" y="170" width="60" height="20" as="geometry" />
        </mxCell>
        <mxCell id="vu7AOW-ozLHc7XYZLCrP-66" value="selects" style="text;html=1;align=center;verticalAlign=middle;resizable=0;points=[];autosize=1;rotation=0;" vertex="1" parent="1">
          <mxGeometry x="275" y="38" width="50" height="20" as="geometry" />
        </mxCell>
        <mxCell id="vu7AOW-ozLHc7XYZLCrP-67" value="1" style="text;html=1;align=center;verticalAlign=middle;resizable=0;points=[];autosize=1;" vertex="1" parent="1">
          <mxGeometry x="120" y="58" width="20" height="20" as="geometry" />
        </mxCell>
        <mxCell id="vu7AOW-ozLHc7XYZLCrP-68" value="1" style="text;html=1;align=center;verticalAlign=middle;resizable=0;points=[];autosize=1;" vertex="1" parent="1">
          <mxGeometry x="520" y="87" width="20" height="20" as="geometry" />
        </mxCell>
        <mxCell id="vu7AOW-ozLHc7XYZLCrP-70" value="records date" style="text;html=1;align=center;verticalAlign=middle;resizable=0;points=[];autosize=1;rotation=0;" vertex="1" parent="1">
          <mxGeometry x="366" y="147" width="80" height="20" as="geometry" />
        </mxCell>
        <mxCell id="vu7AOW-ozLHc7XYZLCrP-71" value="1" style="text;html=1;align=center;verticalAlign=middle;resizable=0;points=[];autosize=1;" vertex="1" parent="1">
          <mxGeometry x="350" y="130" width="20" height="20" as="geometry" />
        </mxCell>
        <mxCell id="vu7AOW-ozLHc7XYZLCrP-72" value="1" style="text;html=1;align=center;verticalAlign=middle;resizable=0;points=[];autosize=1;" vertex="1" parent="1">
          <mxGeometry x="390" y="180" width="20" height="20" as="geometry" />
        </mxCell>
        <mxCell id="vu7AOW-ozLHc7XYZLCrP-77" value="1" style="text;html=1;align=center;verticalAlign=middle;resizable=0;points=[];autosize=1;" vertex="1" parent="1">
          <mxGeometry x="470" y="252" width="20" height="20" as="geometry" />
        </mxCell>
        <mxCell id="vu7AOW-ozLHc7XYZLCrP-78" value="records" style="text;html=1;align=center;verticalAlign=middle;resizable=0;points=[];autosize=1;rotation=0;" vertex="1" parent="1">
          <mxGeometry x="530" y="272" width="60" height="20" as="geometry" />
        </mxCell>
        <mxCell id="vu7AOW-ozLHc7XYZLCrP-80" value="presents" style="text;html=1;align=center;verticalAlign=middle;resizable=0;points=[];autosize=1;rotation=90;" vertex="1" parent="1">
          <mxGeometry x="425" y="292" width="60" height="20" as="geometry" />
        </mxCell>
        <mxCell id="vu7AOW-ozLHc7XYZLCrP-81" value="1" style="text;html=1;align=center;verticalAlign=middle;resizable=0;points=[];autosize=1;" vertex="1" parent="1">
          <mxGeometry x="440" y="250" width="20" height="20" as="geometry" />
        </mxCell>
        <mxCell id="vu7AOW-ozLHc7XYZLCrP-82" value="1" style="text;html=1;align=center;verticalAlign=middle;resizable=0;points=[];autosize=1;" vertex="1" parent="1">
          <mxGeometry x="430" y="336" width="20" height="20" as="geometry" />
        </mxCell>
        <mxCell id="vu7AOW-ozLHc7XYZLCrP-85" value="access price" style="text;html=1;align=center;verticalAlign=middle;resizable=0;points=[];autosize=1;rotation=0;" vertex="1" parent="1">
          <mxGeometry x="685" y="304" width="80" height="20" as="geometry" />
        </mxCell>
        <mxCell id="vu7AOW-ozLHc7XYZLCrP-86" value="1" style="text;html=1;align=center;verticalAlign=middle;resizable=0;points=[];autosize=1;" vertex="1" parent="1">
          <mxGeometry x="760" y="284" width="20" height="20" as="geometry" />
        </mxCell>
        <mxCell id="vu7AOW-ozLHc7XYZLCrP-87" value="1" style="text;html=1;align=center;verticalAlign=middle;resizable=0;points=[];autosize=1;" vertex="1" parent="1">
          <mxGeometry x="650" y="336" width="20" height="20" as="geometry" />
        </mxCell>
        <mxCell id="vu7AOW-ozLHc7XYZLCrP-89" value="adds" style="text;html=1;align=center;verticalAlign=middle;resizable=0;points=[];autosize=1;rotation=0;" vertex="1" parent="1">
          <mxGeometry x="570" y="360" width="40" height="20" as="geometry" />
        </mxCell>
        <mxCell id="vu7AOW-ozLHc7XYZLCrP-90" value="1" style="text;html=1;align=center;verticalAlign=middle;resizable=0;points=[];autosize=1;" vertex="1" parent="1">
          <mxGeometry x="550" y="380" width="20" height="20" as="geometry" />
        </mxCell>
        <mxCell id="vu7AOW-ozLHc7XYZLCrP-91" value="1...*" style="text;html=1;align=center;verticalAlign=middle;resizable=0;points=[];autosize=1;" vertex="1" parent="1">
          <mxGeometry x="600" y="380" width="40" height="20" as="geometry" />
        </mxCell>
        <mxCell id="vu7AOW-ozLHc7XYZLCrP-92" value="1" style="text;html=1;align=center;verticalAlign=middle;resizable=0;points=[];autosize=1;" vertex="1" parent="1">
          <mxGeometry x="735" y="336" width="20" height="20" as="geometry" />
        </mxCell>
        <mxCell id="vu7AOW-ozLHc7XYZLCrP-93" value="1" style="text;html=1;align=center;verticalAlign=middle;resizable=0;points=[];autosize=1;" vertex="1" parent="1">
          <mxGeometry x="70" y="130" width="20" height="20" as="geometry" />
        </mxCell>
        <mxCell id="vu7AOW-ozLHc7XYZLCrP-94" style="edgeStyle=orthogonalEdgeStyle;rounded=0;orthogonalLoop=1;jettySize=auto;html=1;entryX=0.5;entryY=0;entryDx=0;entryDy=0;endArrow=none;endFill=0;" edge="1" parent="1">
          <mxGeometry relative="1" as="geometry">
            <mxPoint x="70" y="130" as="sourcePoint" />
            <mxPoint x="70" y="250" as="targetPoint" />
          </mxGeometry>
        </mxCell>
        <mxCell id="vu7AOW-ozLHc7XYZLCrP-95" style="edgeStyle=orthogonalEdgeStyle;rounded=0;orthogonalLoop=1;jettySize=auto;html=1;entryX=0.5;entryY=0;entryDx=0;entryDy=0;endArrow=none;endFill=0;" edge="1" parent="1">
          <mxGeometry relative="1" as="geometry">
            <mxPoint x="130" y="132" as="sourcePoint" />
            <mxPoint x="130" y="252" as="targetPoint" />
          </mxGeometry>
        </mxCell>
        <mxCell id="vu7AOW-ozLHc7XYZLCrP-96" value="1" style="text;html=1;align=center;verticalAlign=middle;resizable=0;points=[];autosize=1;" vertex="1" parent="1">
          <mxGeometry x="130" y="232" width="20" height="20" as="geometry" />
        </mxCell>
        <mxCell id="vu7AOW-ozLHc7XYZLCrP-97" value="1" style="text;html=1;align=center;verticalAlign=middle;resizable=0;points=[];autosize=1;" vertex="1" parent="1">
          <mxGeometry x="130" y="132" width="20" height="20" as="geometry" />
        </mxCell>
        <mxCell id="vu7AOW-ozLHc7XYZLCrP-98" value="selects" style="text;html=1;align=center;verticalAlign=middle;resizable=0;points=[];autosize=1;rotation=90;" vertex="1" parent="1">
          <mxGeometry x="115" y="180" width="50" height="20" as="geometry" />
        </mxCell>
        <mxCell id="vu7AOW-ozLHc7XYZLCrP-99" value="1" style="text;html=1;align=center;verticalAlign=middle;resizable=0;points=[];autosize=1;" vertex="1" parent="1">
          <mxGeometry x="130" y="132" width="20" height="20" as="geometry" />
        </mxCell>
        <mxCell id="vu7AOW-ozLHc7XYZLCrP-100" style="edgeStyle=orthogonalEdgeStyle;rounded=0;orthogonalLoop=1;jettySize=auto;html=1;entryX=0.5;entryY=0;entryDx=0;entryDy=0;endArrow=none;endFill=0;" edge="1" parent="1">
          <mxGeometry relative="1" as="geometry">
            <mxPoint x="130" y="132" as="sourcePoint" />
            <mxPoint x="130" y="252" as="targetPoint" />
          </mxGeometry>
        </mxCell>
        <mxCell id="vu7AOW-ozLHc7XYZLCrP-101" style="edgeStyle=orthogonalEdgeStyle;rounded=0;orthogonalLoop=1;jettySize=auto;html=1;exitX=1;exitY=0.5;exitDx=0;exitDy=0;endArrow=none;endFill=0;entryX=0.5;entryY=0;entryDx=0;entryDy=0;" edge="1" parent="1" target="vu7AOW-ozLHc7XYZLCrP-41">
          <mxGeometry relative="1" as="geometry">
            <mxPoint x="310" y="133" as="targetPoint" />
            <mxPoint x="190" y="284" as="sourcePoint" />
          </mxGeometry>
        </mxCell>
        <mxCell id="vu7AOW-ozLHc7XYZLCrP-103" value="presents" style="text;html=1;align=center;verticalAlign=middle;resizable=0;points=[];autosize=1;rotation=0;" vertex="1" parent="1">
          <mxGeometry x="340" y="267" width="60" height="20" as="geometry" />
        </mxCell>
        <mxCell id="vu7AOW-ozLHc7XYZLCrP-104" value="1" style="text;html=1;align=center;verticalAlign=middle;resizable=0;points=[];autosize=1;" vertex="1" parent="1">
          <mxGeometry x="380" y="250" width="20" height="20" as="geometry" />
        </mxCell>
        <mxCell id="vu7AOW-ozLHc7XYZLCrP-105" value="1" style="text;html=1;align=center;verticalAlign=middle;resizable=0;points=[];autosize=1;" vertex="1" parent="1">
          <mxGeometry x="340" y="300" width="20" height="20" as="geometry" />
        </mxCell>
        <mxCell id="vu7AOW-ozLHc7XYZLCrP-106" value="1" style="text;html=1;align=center;verticalAlign=middle;resizable=0;points=[];autosize=1;" vertex="1" parent="1">
          <mxGeometry x="190" y="264" width="20" height="20" as="geometry" />
        </mxCell>
        <mxCell id="vu7AOW-ozLHc7XYZLCrP-107" value="pays for" style="text;html=1;align=center;verticalAlign=middle;resizable=0;points=[];autosize=1;rotation=0;" vertex="1" parent="1">
          <mxGeometry x="230" y="264" width="60" height="20" as="geometry" />
        </mxCell>
        <mxCell id="vu7AOW-ozLHc7XYZLCrP-108" value="1" style="text;html=1;align=center;verticalAlign=middle;resizable=0;points=[];autosize=1;" vertex="1" parent="1">
          <mxGeometry x="290" y="300" width="20" height="20" as="geometry" />
        </mxCell>
        <mxCell id="vu7AOW-ozLHc7XYZLCrP-110" style="edgeStyle=orthogonalEdgeStyle;rounded=0;orthogonalLoop=1;jettySize=auto;html=1;exitX=0;exitY=0.5;exitDx=0;exitDy=0;endArrow=none;endFill=0;" edge="1" parent="1" source="vu7AOW-ozLHc7XYZLCrP-39">
          <mxGeometry relative="1" as="geometry">
            <mxPoint x="660" y="244.77777777777771" as="targetPoint" />
          </mxGeometry>
        </mxCell>
        <mxCell id="vu7AOW-ozLHc7XYZLCrP-111" value="shows" style="text;html=1;align=center;verticalAlign=middle;resizable=0;points=[];autosize=1;rotation=0;" vertex="1" parent="1">
          <mxGeometry x="550" y="225" width="50" height="20" as="geometry" />
        </mxCell>
        <mxCell id="vu7AOW-ozLHc7XYZLCrP-112" value="1" style="text;html=1;align=center;verticalAlign=middle;resizable=0;points=[];autosize=1;" vertex="1" parent="1">
          <mxGeometry x="478" y="225" width="20" height="20" as="geometry" />
        </mxCell>
        <mxCell id="vu7AOW-ozLHc7XYZLCrP-114" value="1...*" style="text;html=1;align=center;verticalAlign=middle;resizable=0;points=[];autosize=1;" vertex="1" parent="1">
          <mxGeometry x="635" y="225" width="40" height="20" as="geometry" />
        </mxCell>
        <mxCell id="vu7AOW-ozLHc7XYZLCrP-117" value="enters identifier" style="text;html=1;align=center;verticalAlign=middle;resizable=0;points=[];autosize=1;rotation=90;" vertex="1" parent="1">
          <mxGeometry x="190" y="167" width="100" height="20" as="geometry" />
        </mxCell>
        <mxCell id="vu7AOW-ozLHc7XYZLCrP-118" value="1" style="text;html=1;align=center;verticalAlign=middle;resizable=0;points=[];autosize=1;" vertex="1" parent="1">
          <mxGeometry x="190" y="120" width="20" height="20" as="geometry" />
        </mxCell>
        <mxCell id="vu7AOW-ozLHc7XYZLCrP-119" value="1...*" style="text;html=1;align=center;verticalAlign=middle;resizable=0;points=[];autosize=1;" vertex="1" parent="1">
          <mxGeometry x="300" y="205" width="40" height="20" as="geometry" />
        </mxCell>
      </root>
    </mxGraphModel>
  </diagram>
</mxfile>
